<svg xmlns="http://www.w3.org/2000/svg" viewBox="952.4 209.3 913.5 913.5">
  <defs>
    <linearGradient id="g" x1="0%" y1="0%" x2="100%" y2="100%">
      <stop offset="0%" stop-color="#22d3ee"/>
      <stop offset="100%" stop-color="#a855f7"/>
    </linearGradient>
  </defs>
  <path d="M 1393.500 305.701 C 1372.665 318.006, 1362.218 324.082, 1344 334.491 C 1332.725 340.933, 1319.900 348.359, 1315.500 350.992 C 1311.100 353.625, 1299.625 360.381, 1290 366.005 C 1280.375 371.628, 1268.900 378.361, 1264.500 380.965 C 1260.100 383.570, 1252.583 387.867, 1247.795 390.514 L 1239.090 395.327 1238.757 411.913 C 1238.097 444.765, 1237.989 568, 1238.620 568 C 1238.975 568, 1249.443 563.331, 1261.883 557.626 C 1274.322 551.920, 1288.434 545.546, 1293.241 543.462 L 1301.983 539.672 1302.241 486.129 L 1302.500 432.585 1306.500 429.695 C 1308.700 428.106, 1319.695 421.650, 1330.934 415.349 C 1342.173 409.048, 1355.223 401.510, 1359.934 398.596 C 1364.645 395.683, 1372.083 391.401, 1376.463 389.082 C 1383.719 385.239, 1384.490 385.026, 1385.143 386.682 C 1385.537 387.682, 1385.891 391.333, 1385.930 394.797 C 1385.997 400.836, 1385.873 401.163, 1382.898 402.797 C 1381.191 403.733, 1374.779 407.373, 1368.648 410.885 C 1362.516 414.397, 1350.975 420.872, 1343 425.275 C 1335.025 429.677, 1325.912 435.033, 1322.750 437.177 L 1317 441.075 1316.967 489.787 L 1316.934 538.500 1347.644 568.550 L 1378.355 598.601 1379.126 605.550 C 1380.244 615.621, 1380.154 677.576, 1379.003 690.500 C 1378.088 700.777, 1374.025 720.023, 1370.348 731.500 C 1365.295 747.271, 1357.471 764.552, 1350.104 776.218 C 1347.847 779.792, 1346 783.175, 1346 783.736 C 1346 784.296, 1345.329 785.312, 1344.510 785.992 C 1343.690 786.672, 1341.149 789.990, 1338.863 793.364 C 1330.434 805.805, 1316.170 823.268, 1304.557 835.362 C 1291.299 849.171, 1277.227 867.361, 1272.028 877.411 C 1270.011 881.310, 1267.406 887.425, 1266.239 891 C 1261.758 904.728, 1260.756 910.353, 1260.802 921.500 C 1260.844 931.718, 1261.752 937.102, 1265.594 949.911 C 1266.345 952.413, 1271.622 963.135, 1274.835 968.685 C 1276.675 971.863, 1282.568 979, 1283.353 979 C 1283.580 979, 1282.969 976.188, 1281.994 972.750 C 1278.315 959.776, 1276.976 951.314, 1277.047 941.500 C 1277.087 936, 1277.518 929.475, 1278.006 927 C 1279.723 918.285, 1280.159 916.481, 1281.026 914.500 C 1281.508 913.400, 1282.505 910.700, 1283.242 908.500 C 1285.510 901.731, 1290.529 892.810, 1297.051 883.960 C 1303.244 875.557, 1318.936 859.378, 1343.121 836.460 C 1363.443 817.202, 1377.322 800.301, 1383.736 787 C 1392.245 769.353, 1397.764 750.467, 1399.955 731.500 C 1400.607 725.854, 1400.995 685.231, 1400.997 622.480 L 1401 522.460 1394.221 518.277 C 1390.492 515.976, 1385.772 512.610, 1383.733 510.797 L 1380.024 507.500 1379.401 491 L 1378.779 474.500 1381.139 473.394 C 1382.438 472.786, 1388.587 469.299, 1394.804 465.644 C 1401.021 461.990, 1407.168 459, 1408.464 459 C 1410.748 459, 1417.616 462.580, 1430.927 470.709 L 1437.355 474.634 1437.245 490.964 C 1437.157 504.051, 1436.837 507.592, 1435.633 508.796 C 1434.806 509.622, 1430.163 513.061, 1425.315 516.437 L 1416.500 522.576 1416.223 621.538 C 1416.053 682.351, 1416.332 724.419, 1416.947 730.667 C 1418.296 744.368, 1420.432 754.515, 1424.513 766.611 C 1430.001 782.880, 1434.396 791.405, 1443.697 803.827 C 1452.228 815.220, 1463.191 826.678, 1497 859.536 C 1506.075 868.356, 1516.038 878.931, 1519.140 883.036 C 1524.781 890.501, 1532 903.249, 1532 905.746 C 1532 906.474, 1532.678 908.104, 1533.506 909.368 C 1534.334 910.632, 1535.975 915.229, 1537.153 919.583 C 1538.807 925.695, 1539.318 930.578, 1539.397 941 C 1539.500 954.564, 1537.925 965.138, 1534.439 974.270 C 1533.648 976.344, 1533 978.326, 1533 978.675 C 1533 980.188, 1537.409 975.105, 1541.554 968.813 C 1547.186 960.264, 1552.485 947.240, 1554.622 936.695 C 1557.561 922.190, 1555.412 903.320, 1548.942 886.827 C 1545.903 879.080, 1541.272 870.209, 1538.987 867.755 C 1537.894 866.582, 1537 865.269, 1537 864.837 C 1537 863.920, 1528.316 853.652, 1515.569 839.500 C 1510.616 834, 1504.974 827.733, 1503.031 825.574 C 1501.089 823.414, 1498.713 820.827, 1497.750 819.824 C 1496.787 818.821, 1496 817.576, 1496 817.057 C 1496 816.538, 1495.192 815.525, 1494.205 814.807 C 1493.218 814.088, 1491.080 811.700, 1489.455 809.500 C 1487.830 807.300, 1486.050 804.993, 1485.500 804.373 C 1484.950 803.752, 1483.825 802.239, 1483 801.009 C 1482.175 799.780, 1480.217 797.137, 1478.649 795.137 C 1474.521 789.872, 1463.519 771.170, 1457.391 759 C 1451.836 747.970, 1446.010 731.800, 1442.882 718.737 C 1439.184 703.286, 1437.954 689.173, 1437.328 655 C 1436.991 636.575, 1437.041 616.550, 1437.440 610.500 L 1438.165 599.500 1451.394 586.500 C 1458.670 579.350, 1472.347 566.163, 1481.788 557.195 C 1495.692 543.987, 1499.126 540.189, 1499.867 537.195 C 1500.401 535.038, 1500.515 514.156, 1500.141 487.016 L 1499.500 440.533 1492.500 436.271 C 1488.650 433.928, 1482.800 430.496, 1479.500 428.645 C 1476.200 426.794, 1471.925 424.364, 1470 423.245 C 1462.455 418.858, 1420.173 394.478, 1414.669 391.341 C 1409.749 388.536, 1408.498 388.195, 1406.669 389.158 C 1405.476 389.786, 1404.187 390.782, 1403.804 391.371 C 1403.422 391.960, 1402.747 392.081, 1402.304 391.639 C 1401.862 391.197, 1401.370 370.847, 1401.211 346.418 C 1401.052 321.988, 1400.602 302.035, 1400.211 302.079 C 1399.820 302.122, 1396.800 303.752, 1393.500 305.701 M 1416 338.355 L 1416 374.924 1428.250 382.086 C 1434.987 386.025, 1445.675 392.297, 1452 396.024 C 1458.325 399.750, 1467.700 405.115, 1472.834 407.945 C 1477.967 410.775, 1486.067 415.472, 1490.834 418.383 C 1495.600 421.295, 1502.532 425.343, 1506.237 427.380 C 1509.943 429.417, 1513.430 431.935, 1513.987 432.976 C 1514.634 434.184, 1515 453.705, 1515 486.962 L 1515 539.056 1523.250 542.916 C 1527.787 545.040, 1535.775 548.680, 1541 551.005 C 1546.225 553.330, 1556.575 558.104, 1564 561.614 L 1577.500 567.996 1577.758 482.748 C 1577.900 435.862, 1577.829 397.008, 1577.599 396.406 C 1577.370 395.804, 1561.054 385.947, 1541.341 374.502 C 1521.629 363.057, 1502.800 352.029, 1499.500 349.995 C 1494.566 346.954, 1481.051 339.050, 1468 331.573 C 1449.138 320.767, 1439.892 315.390, 1437 313.545 C 1431.011 309.724, 1419.584 303.135, 1417.750 302.445 C 1416.103 301.825, 1416 303.943, 1416 338.355 M 1351.260 344.116 C 1349.478 344.631, 1345.981 347.178, 1343.490 349.776 C 1339.025 354.432, 1337.017 358.901, 1337.006 364.205 C 1336.999 367.239, 1339.522 365.584, 1301 387.828 C 1288.625 394.974, 1275.013 402.952, 1270.750 405.556 L 1263 410.292 1262.829 449.896 C 1262.735 471.678, 1262.606 490.189, 1262.543 491.032 C 1262.480 491.875, 1260.331 494.497, 1257.769 496.859 C 1249.376 504.595, 1247.884 515.398, 1254.035 523.890 C 1259.987 532.106, 1270.528 534.572, 1279.644 529.880 C 1287.898 525.633, 1292.039 517.011, 1289.902 508.525 C 1288.484 502.892, 1284.039 496.589, 1280.020 494.510 L 1277 492.949 1277 456.012 L 1277 419.075 1282.750 415.202 C 1285.912 413.072, 1297.950 406.019, 1309.500 399.529 C 1321.050 393.039, 1332.075 386.734, 1334 385.518 C 1335.925 384.302, 1338.991 382.536, 1340.813 381.595 C 1343.998 379.950, 1344.297 379.965, 1348.482 381.991 C 1350.877 383.151, 1354.568 384.168, 1356.683 384.253 C 1362.111 384.469, 1369.559 380.591, 1373.098 375.706 C 1377.445 369.706, 1378.440 365.437, 1377.052 358.749 C 1376.098 354.156, 1375.112 352.436, 1371.550 349.153 C 1365.478 343.556, 1358.875 341.917, 1351.260 344.116 M 1453.123 344.283 C 1451.265 344.877, 1447.508 347.419, 1444.774 349.934 L 1439.802 354.505 1439.833 362.381 C 1439.850 366.713, 1440.380 371.502, 1441.010 373.024 C 1442.149 375.773, 1447.362 380.537, 1451.840 382.921 C 1455.525 384.883, 1462.409 384.401, 1468.196 381.775 L 1473.467 379.383 1477.483 382.076 C 1479.693 383.557, 1493.875 391.827, 1509 400.453 C 1524.125 409.080, 1537.287 417.057, 1538.250 418.180 C 1539.847 420.043, 1540 423.397, 1540 456.563 L 1540 492.904 1535.652 495.895 C 1533.261 497.541, 1530.495 500.122, 1529.505 501.633 C 1528.396 503.325, 1527.551 506.896, 1527.303 510.939 C 1526.966 516.440, 1527.274 518.140, 1529.209 521.458 C 1530.478 523.636, 1533.423 526.757, 1535.753 528.394 C 1538.960 530.648, 1541.407 531.474, 1545.823 531.794 C 1550.342 532.120, 1552.569 531.750, 1555.703 530.152 C 1560.735 527.585, 1564.606 523.079, 1565.956 518.219 C 1568.364 509.548, 1566.418 503.367, 1559.323 497.145 L 1554.025 492.500 1554.013 451.750 C 1554.001 413.099, 1553.903 410.910, 1552.112 409.250 C 1551.073 408.288, 1544.886 404.450, 1538.362 400.722 C 1531.838 396.993, 1516.150 387.948, 1503.500 380.622 L 1480.500 367.300 1479.728 361.941 C 1478.462 353.152, 1473.293 346.759, 1465.609 344.476 C 1459.945 342.795, 1457.882 342.763, 1453.123 344.283 M 1353.168 356.174 C 1345.905 360.808, 1346.916 369.237, 1355.095 372.234 C 1355.972 372.555, 1358.499 372.009, 1360.709 371.019 C 1363.532 369.755, 1364.933 368.405, 1365.415 366.481 C 1366.398 362.568, 1365.227 358.378, 1362.687 356.718 C 1358.669 354.091, 1356.617 353.974, 1353.168 356.174 M 1453.541 355.955 C 1452.234 357.399, 1451.623 359.623, 1451.573 363.112 C 1451.512 367.347, 1451.907 368.504, 1453.988 370.190 C 1455.917 371.753, 1457.455 372.096, 1460.825 371.716 C 1463.217 371.447, 1465.678 370.722, 1466.295 370.105 C 1466.911 369.489, 1467.434 366.683, 1467.458 363.870 C 1467.494 359.541, 1467.116 358.474, 1465 356.929 C 1463.625 355.925, 1460.911 354.824, 1458.969 354.482 C 1456.154 353.986, 1455.052 354.285, 1453.541 355.955 M 1384 428.633 C 1371.075 436.069, 1356.900 444.198, 1352.500 446.698 C 1348.100 449.198, 1343.713 451.933, 1342.750 452.777 C 1341.174 454.158, 1341 456.714, 1341 478.535 L 1341 502.759 1336.375 506.549 C 1328.718 512.824, 1326.136 521.603, 1329.548 529.768 C 1333.294 538.735, 1342.610 543.747, 1352.179 541.943 L 1356.500 541.128 1366.835 551.314 C 1372.519 556.916, 1379.907 564.875, 1383.254 569 C 1391.118 578.694, 1391.244 578.831, 1390.491 576.851 C 1390.146 575.944, 1390.344 574.905, 1390.932 574.542 C 1391.526 574.175, 1392 570.757, 1392 566.845 C 1392 561.294, 1391.547 559.143, 1389.853 556.654 C 1388.672 554.919, 1382.983 548.703, 1377.210 542.841 L 1366.715 532.182 1367.387 527.983 C 1367.756 525.674, 1367.533 521.113, 1366.890 517.848 C 1365.844 512.530, 1365.163 511.414, 1360.340 507.115 L 1354.958 502.318 1355.229 481.992 L 1355.500 461.666 1362 457.685 C 1375.831 449.214, 1406.560 432, 1407.851 432 C 1409.007 432, 1428.413 442.635, 1442.519 451 C 1444.837 452.375, 1450.169 455.493, 1454.367 457.928 L 1462 462.357 1462 482.486 L 1462 502.615 1457.651 505.681 C 1454.975 507.567, 1452.439 510.527, 1451.061 513.374 C 1449.253 517.109, 1448.883 519.349, 1449.143 524.986 L 1449.466 531.971 1441.389 540.235 C 1436.947 544.781, 1431.170 551.162, 1428.552 554.416 C 1424.431 559.539, 1423.866 560.784, 1424.338 563.697 C 1424.639 565.548, 1425.590 568.477, 1426.454 570.207 C 1427.317 571.937, 1427.762 574.174, 1427.444 575.176 C 1426.514 578.106, 1427.533 577.305, 1430.533 572.750 C 1432.072 570.413, 1439.219 562.495, 1446.416 555.156 L 1459.500 541.812 1463.836 542.399 C 1466.221 542.721, 1470.132 542.492, 1472.528 541.889 C 1477.400 540.662, 1484.287 535.280, 1486.526 530.949 C 1488.421 527.285, 1488.436 516.743, 1486.551 513.099 C 1485.004 510.107, 1478.570 504, 1476.965 504 C 1476.371 504, 1476 494.565, 1476 479.464 C 1476 455.305, 1475.965 454.897, 1473.750 452.841 C 1472.513 451.693, 1460.700 444.690, 1447.500 437.278 C 1434.300 429.866, 1420.575 422.070, 1417 419.953 C 1413.425 417.836, 1409.825 415.880, 1409 415.608 C 1408.175 415.336, 1396.925 421.197, 1384 428.633 M 1098.502 440.575 C 1096.853 441.435, 1094.652 442.895, 1093.611 443.819 C 1090.698 446.405, 1088.046 453.034, 1088.022 457.790 C 1087.991 463.850, 1093.007 473, 1096.360 473 C 1099.394 473, 1101.191 470.219, 1071.500 511.456 C 1062.150 524.442, 1052.025 538.559, 1049 542.826 C 1019.602 584.300, 1012.525 594.236, 1009.045 598.926 C 1006.830 601.910, 1005.198 604.531, 1005.418 604.751 C 1005.764 605.097, 1023.559 593.285, 1066.500 564.208 C 1072.550 560.111, 1078.513 555.835, 1079.750 554.705 C 1081.396 553.202, 1082 551.531, 1082 548.475 C 1082 546.178, 1082.469 542.954, 1083.042 541.310 C 1084.337 537.596, 1090.428 534, 1095.426 534 C 1100.070 534, 1106.173 537.086, 1107.897 540.307 C 1108.629 541.675, 1109.262 545.049, 1109.304 547.804 C 1109.364 551.816, 1108.824 553.542, 1106.591 556.469 C 1105.058 558.479, 1102.693 560.546, 1101.337 561.062 C 1098.037 562.316, 1091.340 562.252, 1088.893 560.943 C 1087.225 560.050, 1085.121 561.102, 1075.382 567.693 C 1069.038 571.987, 1060.078 577.975, 1055.471 581 C 1050.864 584.025, 1038.272 592.487, 1027.489 599.804 C 1016.706 607.121, 1007.201 613.369, 1006.366 613.690 C 1005.396 614.062, 1003.761 612.952, 1001.834 610.615 C 997.995 605.957, 993.863 603.832, 988.484 603.751 C 982.525 603.661, 977.102 606.751, 973.250 612.433 C 970.795 616.054, 970 618.308, 970 621.653 C 970 627.266, 972.956 633.102, 977.589 636.635 C 980.324 638.722, 982.624 639.490, 987.109 639.814 C 992.153 640.179, 993.090 640.555, 993.484 642.371 C 994.081 645.128, 1002.644 729.930, 1004.716 753.599 L 1005.250 759.698 1001.722 760.270 C 996.954 761.044, 990.512 765.466, 988.033 769.668 C 985.228 774.422, 985.302 782.116, 988.199 786.882 C 989.408 788.872, 991.546 791.518, 992.949 792.762 C 995.551 795.069, 1000.823 796.984, 1004.601 796.994 C 1007.496 797.002, 1013.211 794.923, 1014.887 793.252 C 1016.068 792.074, 1016.549 792.286, 1018.130 794.684 C 1019.151 796.233, 1019.990 798.250, 1019.993 799.167 C 1019.997 800.083, 1020.337 800.983, 1020.750 801.167 C 1021.648 801.566, 1023.104 804.222, 1032.438 822.500 C 1036.371 830.200, 1043.610 843.925, 1048.525 853 L 1057.462 869.500 1058.114 865 C 1058.974 859.072, 1063.589 845.814, 1066.326 841.415 C 1073.109 830.510, 1082.836 821.703, 1094.500 815.905 C 1098.900 813.718, 1105.200 811.286, 1108.500 810.500 C 1111.800 809.714, 1119.604 809.055, 1125.843 809.036 C 1139.607 808.992, 1152.907 811.494, 1165.111 816.422 C 1182.980 823.638, 1200.459 826.657, 1218.257 825.602 C 1230.670 824.865, 1240.831 823.081, 1251.195 819.817 L 1258.500 817.516 1238.500 816.933 C 1220.284 816.402, 1207.095 814.872, 1204.500 812.987 C 1203.950 812.588, 1201.806 811.955, 1199.735 811.582 C 1194.305 810.604, 1181.043 804.858, 1169.545 798.502 C 1164.070 795.476, 1159.233 793, 1158.795 793 C 1158.358 793, 1158 792.550, 1158 792 C 1158 791.450, 1157.507 791, 1156.904 791 C 1156.301 791, 1152.139 788.614, 1147.654 785.698 C 1138.247 779.581, 1129.352 773.942, 1126.835 772.500 C 1125.875 771.950, 1122.387 769.842, 1119.084 767.816 C 1111.771 763.330, 1097.871 757.673, 1088.464 755.354 C 1078.913 753, 1060.698 753.023, 1052 755.401 C 1043.428 757.744, 1032.596 762.837, 1026.957 767.176 L 1022.413 770.672 1017.707 765.907 C 1015.118 763.287, 1013 760.951, 1013 760.716 C 1013 760.482, 1015.587 758.489, 1018.750 756.288 C 1035.297 744.774, 1050.144 739.993, 1069.315 740.008 C 1081.449 740.017, 1089.538 741.194, 1101 744.620 C 1109.536 747.171, 1128.469 756.552, 1148.009 767.912 C 1163.516 776.927, 1174.772 780.827, 1191.887 783.112 C 1210.589 785.610, 1237.027 781.516, 1256.227 773.150 C 1260.231 771.406, 1266.870 767.618, 1273.139 763.500 C 1283.429 756.742, 1287.351 753.570, 1295.717 745.237 C 1301.098 739.878, 1307.075 733.354, 1309 730.740 C 1310.925 728.126, 1313.330 724.977, 1314.345 723.743 C 1315.360 722.510, 1316.822 720.286, 1317.594 718.802 C 1318.366 717.318, 1320.300 714.168, 1321.892 711.802 C 1323.484 709.436, 1325.823 705.475, 1327.090 703 C 1328.357 700.525, 1330.165 697.375, 1331.107 696 C 1335 690.322, 1346 660.695, 1346 655.891 C 1346 654.916, 1346.346 653.904, 1346.768 653.643 C 1347.191 653.382, 1347.373 654.882, 1347.174 656.976 C 1346.948 659.342, 1347.586 662.536, 1348.860 665.416 C 1349.987 667.964, 1351.441 672.752, 1352.091 676.056 C 1353.210 681.743, 1353.124 682.423, 1350.481 688.782 C 1341.861 709.528, 1323.040 737.814, 1307.174 753.869 C 1296.012 765.165, 1288.734 770.836, 1275.656 778.431 C 1263.372 785.564, 1253.119 790.245, 1244.636 792.594 C 1235.232 795.199, 1216.964 798, 1209.184 798.030 C 1204.453 798.049, 1202.076 798.387, 1203 798.909 C 1203.825 799.375, 1209.675 800.986, 1216 802.487 C 1225.524 804.749, 1229.820 805.222, 1241 805.239 C 1251.402 805.255, 1256.511 804.773, 1263.265 803.136 C 1276.895 799.832, 1284.420 797.161, 1297 791.161 C 1301.125 789.194, 1304.930 787.565, 1305.455 787.542 C 1305.980 787.519, 1307.446 786.463, 1308.713 785.196 C 1309.980 783.929, 1311.463 783.168, 1312.008 783.505 C 1312.554 783.842, 1313 783.750, 1313 783.300 C 1313 782.849, 1313.894 781.923, 1314.986 781.241 C 1316.387 780.366, 1316.020 781.283, 1313.736 784.359 C 1311.956 786.757, 1310.093 788.487, 1309.595 788.204 C 1309.098 787.922, 1308.991 788.177, 1309.358 788.770 C 1310.028 789.855, 1306.458 794.387, 1296.179 805.500 C 1290.293 811.863, 1277.201 823, 1275.607 823 C 1275.085 823, 1273.898 823.687, 1272.970 824.527 C 1271.067 826.249, 1255.404 834, 1253.827 834 C 1253.263 834, 1251.384 834.652, 1249.651 835.448 C 1243.941 838.072, 1230.717 840.167, 1216.500 840.699 C 1204.868 841.134, 1200.694 840.870, 1191.826 839.136 C 1181.929 837.201, 1172.437 834.378, 1157.500 828.927 C 1147.631 825.326, 1136.006 823.053, 1127.315 823.026 C 1115.278 822.988, 1105.786 825.301, 1097.510 830.288 C 1093.665 832.604, 1089.077 835.763, 1087.314 837.306 C 1082.886 841.182, 1076.511 851.570, 1073.903 859.161 C 1072.282 863.877, 1071.696 868.061, 1071.612 875.500 C 1071.512 884.422, 1071.867 886.573, 1074.900 895.454 C 1078.165 905.010, 1078.225 905.450, 1076.413 906.454 C 1075.375 907.029, 1072.877 909.090, 1070.862 911.033 C 1067.787 913.999, 1067.084 915.482, 1066.486 920.265 C 1066.094 923.399, 1066.074 927.158, 1066.440 928.619 C 1068.153 935.441, 1077.401 942.031, 1085.185 941.977 C 1090.016 941.943, 1097.917 937.183, 1100.088 933 C 1101.087 931.075, 1102.175 928.613, 1102.506 927.528 C 1102.837 926.442, 1103.420 925.993, 1103.804 926.528 C 1104.187 927.063, 1108.100 928.710, 1112.500 930.188 C 1120.697 932.943, 1150.438 944.422, 1158.181 947.820 C 1160.556 948.862, 1171.725 953.214, 1183 957.491 C 1194.275 961.768, 1203.725 965.567, 1204 965.933 C 1204.275 966.299, 1206.851 967.344, 1209.724 968.254 C 1212.597 969.164, 1220.247 972.155, 1226.724 974.899 C 1244.643 982.493, 1277.197 995.136, 1277.654 994.679 C 1277.877 994.457, 1276.758 992.882, 1275.168 991.179 C 1271.210 986.943, 1260.811 971.599, 1257.764 965.500 C 1251.162 952.287, 1247 935.082, 1247 921 C 1247 906.780, 1251.344 888.772, 1258.336 874 C 1262.734 864.709, 1274.200 847.974, 1281.509 840.176 C 1284.951 836.504, 1289.045 831.925, 1290.606 830 C 1292.167 828.075, 1294.356 825.585, 1295.472 824.467 C 1298.943 820.989, 1310.300 807.862, 1316.931 799.664 C 1328.497 785.365, 1335.383 775.153, 1341.318 763.500 C 1346.673 752.985, 1351 743.624, 1351 742.555 C 1351 742.141, 1351.631 740.384, 1352.401 738.651 C 1355.470 731.748, 1359.177 719.640, 1361.673 708.367 C 1364.248 696.734, 1364.309 695.611, 1364.737 651.307 L 1365.173 606.114 1352.837 593.744 C 1339.298 580.169, 1309.476 552, 1308.643 552 C 1308.354 552, 1304.154 553.836, 1299.309 556.080 C 1294.464 558.324, 1289.150 560.753, 1287.500 561.476 C 1261.029 573.089, 1245.049 580.436, 1245.038 581 C 1245.021 581.847, 1257.777 595.958, 1273.158 612.109 C 1289.865 629.652, 1294.743 635.586, 1298.420 642.842 C 1304.314 654.474, 1305.514 668.226, 1302.007 683.970 C 1295.632 712.589, 1280.465 735.542, 1258.199 750.269 C 1252.224 754.222, 1240.979 758.954, 1230 762.136 C 1226.425 763.172, 1218.275 764.535, 1211.889 765.165 C 1201.932 766.147, 1198.799 766.068, 1189.889 764.612 C 1175.091 762.194, 1166.320 759.632, 1155.447 754.551 C 1137.841 746.324, 1127.982 739.410, 1115.689 726.672 C 1096.859 707.161, 1085.710 684.280, 1082.070 657.678 C 1079.791 641.016, 1081.479 620.874, 1086.418 605.812 C 1090.389 593.702, 1097.005 581.317, 1108.379 564.700 C 1124.947 540.495, 1129.431 528.727, 1129.413 509.500 C 1129.404 500.318, 1129.012 497.508, 1127.042 492.500 C 1124.598 486.286, 1121.030 480.117, 1117.667 476.289 C 1115.728 474.082, 1115.730 474.072, 1118.929 470.428 C 1120.692 468.420, 1122.554 465.674, 1123.067 464.324 C 1124.449 460.689, 1124.198 453.281, 1122.589 450.200 C 1119.362 444.022, 1111.363 438.994, 1104.782 439.006 C 1102.977 439.010, 1100.151 439.716, 1098.502 440.575 M 1704.491 440.865 C 1702.287 441.867, 1699.055 444.313, 1697.309 446.301 C 1691.482 452.938, 1691.838 463.329, 1698.138 470.505 L 1701.187 473.977 1698.248 477.738 C 1693.305 484.067, 1690.152 490.245, 1688.408 497.025 C 1687.131 501.983, 1686.883 505.843, 1687.348 513.500 C 1687.682 519, 1688.679 525.975, 1689.565 529 C 1690.451 532.025, 1693.523 539, 1696.392 544.500 C 1701.008 553.350, 1703.288 557.150, 1709 565.516 C 1713.671 572.356, 1722.680 588.201, 1725.935 595.300 C 1734.471 613.913, 1737.782 636.892, 1734.925 657.678 C 1732.656 674.177, 1727.700 687.819, 1718.093 704 C 1711.522 715.068, 1707.359 720.487, 1698.934 728.939 C 1675.260 752.688, 1638.040 767.627, 1607.678 765.565 C 1597.725 764.890, 1581.395 761.307, 1575 758.396 C 1561.988 752.473, 1551.004 745.609, 1544.500 739.335 C 1529.656 725.015, 1518.688 704.796, 1514.485 684.002 C 1513.254 677.912, 1512.887 672.387, 1513.189 664.502 C 1513.570 654.555, 1513.941 652.781, 1517.055 646.003 C 1518.950 641.880, 1523.130 635.355, 1526.345 631.503 C 1529.560 627.652, 1540.810 615.346, 1551.345 604.158 C 1569.406 584.978, 1572.660 581.233, 1571.842 580.575 C 1571.467 580.274, 1549.661 570.393, 1524.259 559.012 L 1508.018 551.736 1495.759 563.243 C 1489.016 569.572, 1476.401 581.669, 1467.724 590.125 L 1451.948 605.500 1451.977 645 C 1452.009 689.555, 1452.973 702.193, 1457.696 720 C 1461.616 734.780, 1465.964 745.395, 1474.839 761.851 C 1482.517 776.088, 1482.688 776.384, 1485.940 781.021 C 1498.058 798.298, 1502.756 803.925, 1535.500 840.378 C 1539.350 844.664, 1544.439 850.945, 1546.810 854.336 C 1552.144 861.965, 1558.294 873.035, 1560.512 879 C 1561.433 881.475, 1562.545 884.400, 1562.984 885.500 C 1564.743 889.907, 1567.186 898.899, 1568.554 906 C 1572.060 924.189, 1568.973 943.763, 1559.471 963.598 C 1555.551 971.782, 1543.771 989.683, 1540.631 992.228 C 1538.942 993.598, 1538.832 993.960, 1540.101 993.978 C 1540.981 993.990, 1543.231 993.491, 1545.101 992.869 C 1550.385 991.111, 1576.148 981.125, 1579.500 979.536 C 1583.150 977.806, 1598.311 971.730, 1614.500 965.510 C 1621.100 962.973, 1627.978 960.246, 1629.784 959.449 C 1631.590 958.652, 1633.507 958, 1634.045 958 C 1634.582 958, 1636.929 957.119, 1639.261 956.042 C 1641.592 954.965, 1646.425 952.994, 1650 951.663 C 1653.575 950.331, 1661.225 947.338, 1667 945.013 C 1672.775 942.688, 1684.475 938.100, 1693 934.818 C 1701.525 931.535, 1709.657 928.276, 1711.072 927.574 C 1713.474 926.382, 1713.730 926.494, 1714.960 929.271 C 1718.557 937.398, 1727.394 942.899, 1734.660 941.536 C 1739.344 940.657, 1744.979 937.786, 1747.172 935.160 C 1750.252 931.474, 1751.095 928.990, 1751.258 923.120 C 1751.371 919.038, 1750.896 916.490, 1749.674 914.625 C 1748.011 912.087, 1741.206 906.575, 1738.685 905.723 C 1737.837 905.437, 1738.030 904.209, 1739.363 901.411 C 1743.321 893.100, 1745 885.853, 1745 877.080 C 1745 867.110, 1743.245 859.404, 1739.116 851.243 C 1733.470 840.084, 1723.964 831.709, 1710.856 826.345 C 1705.776 824.267, 1702.269 823.643, 1693.390 823.239 C 1686.456 822.923, 1680.254 823.188, 1676.890 823.944 C 1669.918 825.509, 1654.791 830.094, 1653.500 831.034 C 1651.198 832.709, 1631.783 838.030, 1622.761 839.458 C 1606.681 842.004, 1587.883 841.188, 1574 837.342 C 1567.766 835.616, 1555.075 830.705, 1550.330 828.184 C 1533.348 819.163, 1523.048 809.635, 1504.597 785.882 C 1500.340 780.401, 1500.076 779.813, 1502.597 781.417 C 1504.194 782.433, 1506.850 784.231, 1508.500 785.411 C 1515.089 790.126, 1536.213 798.990, 1548.077 802.020 C 1552.301 803.098, 1560.348 804.503, 1565.959 805.141 C 1573.718 806.023, 1578.477 806.021, 1585.831 805.132 C 1596.657 803.824, 1613 800.155, 1613 799.034 C 1613 798.631, 1608.838 798.019, 1603.750 797.673 C 1589.311 796.691, 1573.868 793.451, 1562.500 789.018 C 1560.639 788.293, 1553.153 784.617, 1546.747 781.283 C 1529.349 772.229, 1509.521 755.515, 1496.144 738.626 C 1490.329 731.285, 1481.172 717.864, 1477.916 711.910 C 1473.974 704.701, 1464.106 684.065, 1463.136 681 C 1462.095 677.714, 1462.125 677.623, 1463.617 679.500 C 1465.187 681.475, 1465.199 681.472, 1464.551 679.298 C 1464.111 677.821, 1465.065 674.563, 1467.448 669.407 C 1469.401 665.178, 1471.021 660.769, 1471.048 659.609 C 1471.074 658.449, 1471.752 659.525, 1472.555 662 C 1473.358 664.475, 1475.472 671, 1477.252 676.500 C 1481.883 690.804, 1493.536 712.796, 1502.685 724.500 C 1503.975 726.150, 1505.362 727.950, 1505.768 728.500 C 1514.468 740.294, 1527.324 752.015, 1543 762.444 C 1557.481 772.078, 1564.074 775.004, 1582.629 780.032 C 1603.445 785.673, 1631.461 784.751, 1649.500 777.831 C 1657.404 774.798, 1665.160 771.025, 1669.500 768.101 C 1671.700 766.618, 1674.175 765.072, 1675 764.664 C 1675.825 764.255, 1677.400 763.366, 1678.500 762.688 C 1685.210 758.548, 1701.544 750.092, 1707.500 747.674 C 1719.746 742.702, 1728.488 740.913, 1743.500 740.308 C 1755.772 739.813, 1758.577 740.013, 1766.222 741.929 C 1779.641 745.293, 1794.075 751.954, 1801 757.979 L 1804.500 761.025 1801.887 763.262 C 1800.450 764.493, 1798.510 766.700, 1797.577 768.166 L 1795.880 770.832 1789.690 766.594 C 1781.652 761.092, 1770.021 756.445, 1759.169 754.401 C 1738.252 750.460, 1714.267 756.794, 1689.725 772.739 C 1685.751 775.321, 1681.376 778.042, 1680.002 778.786 C 1678.628 779.530, 1676.815 780.762, 1675.973 781.525 C 1672.700 784.487, 1643.414 801.039, 1634.694 804.855 C 1623.481 809.763, 1610.557 813.577, 1598.530 815.527 C 1593.410 816.358, 1582.824 816.994, 1574.083 816.996 C 1565.604 816.998, 1558.899 817.232, 1559.183 817.516 C 1559.467 817.800, 1563.480 819.115, 1568.100 820.437 C 1579.405 823.673, 1594.918 826.001, 1605.119 825.994 C 1618.586 825.985, 1636.865 822.681, 1646.500 818.516 C 1653.453 815.510, 1658.656 813.848, 1668.780 811.400 C 1678.381 809.079, 1680.962 808.853, 1693.500 809.242 C 1703.294 809.545, 1709.002 810.200, 1712.500 811.421 C 1727.912 816.804, 1739.029 825.037, 1747.472 837.323 C 1752.909 845.234, 1756.552 854.252, 1758.415 864.414 L 1759.500 870.329 1762.969 863.414 C 1764.877 859.611, 1768.641 852.450, 1771.332 847.500 C 1774.023 842.550, 1779.616 831.975, 1783.760 824 C 1787.904 816.025, 1791.632 809.050, 1792.045 808.500 C 1792.457 807.950, 1794.500 804.125, 1796.585 800 C 1798.670 795.875, 1800.480 792.348, 1800.609 792.162 C 1800.738 791.976, 1802.267 792.876, 1804.008 794.162 C 1806.483 795.990, 1808.409 796.487, 1812.837 796.441 C 1822.509 796.340, 1829.126 791.265, 1831.102 782.433 C 1831.983 778.499, 1831.970 776.440, 1831.048 773.646 C 1830.386 771.640, 1828.477 768.631, 1826.807 766.960 C 1823.281 763.435, 1816.980 760, 1814.040 760 C 1812.918 760, 1812 759.508, 1812 758.907 C 1812 753.342, 1822.385 650.316, 1823.961 640.250 C 1823.982 640.112, 1826.043 640, 1828.540 640 C 1831.072 640, 1834.775 639.135, 1836.914 638.044 C 1841.475 635.717, 1845.774 630.884, 1846.584 627.173 C 1846.905 625.703, 1847.359 623.889, 1847.593 623.143 C 1848.407 620.551, 1845.898 613.953, 1842.724 610.338 C 1838.794 605.862, 1834.528 603.995, 1828.282 604.016 C 1821.967 604.038, 1816.071 607.352, 1813.687 612.219 L 1811.873 615.921 1804.687 610.619 C 1800.734 607.703, 1786.250 597.838, 1772.500 588.696 C 1758.750 579.554, 1743.900 569.591, 1739.500 566.554 L 1731.500 561.034 1725 561.588 C 1719.737 562.037, 1717.839 561.776, 1715.025 560.216 C 1713.007 559.097, 1710.566 556.446, 1709.204 553.895 C 1707.431 550.571, 1707.003 548.575, 1707.448 545.706 C 1708.259 540.489, 1709.867 538.161, 1714.210 535.917 C 1720.937 532.441, 1728.435 533.924, 1732.912 539.615 C 1734.404 541.512, 1735.004 543.729, 1735.015 547.385 C 1735.024 550.198, 1735.361 552.953, 1735.765 553.506 C 1737.121 555.362, 1744.325 560.373, 1777.868 582.794 C 1796.220 595.061, 1811.414 604.920, 1811.632 604.702 C 1811.850 604.484, 1811.190 603.224, 1810.166 601.903 C 1809.142 600.581, 1805.507 595.450, 1802.088 590.500 C 1798.669 585.550, 1792.321 576.550, 1787.982 570.500 C 1775.644 553.299, 1770.606 546.233, 1763.383 536 C 1759.695 530.775, 1752.341 520.650, 1747.040 513.500 C 1736.016 498.629, 1720 475.263, 1720 474.050 C 1720 473.601, 1720.861 473.008, 1721.914 472.733 C 1725.126 471.893, 1729.160 464.327, 1729.726 458.080 C 1730.198 452.875, 1729.988 452.137, 1726.853 447.982 C 1723.111 443.023, 1716.215 438.988, 1711.538 439.022 C 1709.867 439.034, 1706.696 439.863, 1704.491 440.865 M 1399.700 478.732 L 1391.929 483.465 1392.214 491.957 L 1392.500 500.449 1399.500 505.162 C 1403.350 507.754, 1407.208 509.903, 1408.073 509.938 C 1408.938 509.972, 1412.876 507.934, 1416.823 505.408 L 1424 500.816 1424 492.083 L 1424 483.349 1416.621 478.675 C 1412.562 476.104, 1408.843 474, 1408.356 474 C 1407.869 474, 1403.974 476.130, 1399.700 478.732 M 1265.250 504.989 C 1262.348 506.758, 1262 507.459, 1262 511.531 C 1262 515.039, 1262.566 516.657, 1264.455 518.545 C 1266.114 520.205, 1268.029 521, 1270.366 521 C 1272.998 521, 1274.440 520.266, 1276.411 517.923 C 1277.835 516.231, 1279 513.959, 1279 512.874 C 1279 509.682, 1276.351 505.481, 1273.528 504.195 C 1269.996 502.586, 1269.042 502.677, 1265.250 504.989 M 1543 504 C 1541.625 504.440, 1540.924 504.845, 1541.441 504.900 C 1541.959 504.955, 1541.519 505.631, 1540.464 506.403 C 1539.099 507.401, 1538.545 509.019, 1538.545 512.016 C 1538.545 515.486, 1539.068 516.644, 1541.523 518.608 C 1545.378 521.692, 1549.421 521.669, 1552.545 518.545 C 1554.418 516.673, 1555 515.033, 1555 511.627 C 1555 507.637, 1554.642 506.942, 1551.632 505.082 C 1548.050 502.868, 1546.961 502.732, 1543 504 M 1144.015 514.520 C 1143.996 523.310, 1141.147 533.806, 1135.607 545.500 C 1133.262 550.450, 1126.442 561.924, 1120.452 570.998 C 1109.496 587.594, 1104.630 597.307, 1099.410 613 C 1096.686 621.191, 1096.583 622.228, 1096.578 641.500 C 1096.572 663.628, 1097.498 669.408, 1103.125 682.355 C 1109.375 696.734, 1114.978 704.878, 1126.581 716.450 C 1141.399 731.227, 1152.025 738.455, 1168.612 745.045 C 1177.932 748.747, 1193.861 752, 1202.657 751.999 C 1210.260 751.997, 1223.750 749.860, 1231.465 747.435 C 1243.300 743.716, 1253.469 737.565, 1262.378 728.738 C 1266.162 724.990, 1269.043 721.709, 1268.781 721.447 C 1268.378 721.044, 1262.812 723.241, 1254.500 727.084 C 1253.400 727.593, 1248.225 728.900, 1243 729.989 C 1230.494 732.595, 1214.719 732.624, 1201.498 730.065 C 1189.625 727.767, 1183.064 725.570, 1173.137 720.570 C 1162.291 715.107, 1154.475 709.448, 1145.947 700.886 C 1132.840 687.726, 1124.862 673.624, 1119.859 654.773 C 1118.098 648.139, 1117.672 643.826, 1117.708 633 C 1117.736 624.574, 1118.341 616.854, 1119.319 612.459 C 1121.589 602.248, 1126.835 588.469, 1134.529 572.500 C 1138.239 564.800, 1142.082 556.156, 1143.069 553.292 C 1144.056 550.427, 1145.625 543.228, 1146.556 537.292 C 1147.991 528.138, 1148.066 525.278, 1147.048 518.437 C 1145.409 507.423, 1144.035 505.647, 1144.015 514.520 M 1670.628 515.097 C 1668.891 521.317, 1668.874 522.373, 1670.329 533.597 C 1671.177 540.144, 1673.073 549.325, 1674.543 554 C 1676.013 558.675, 1680.362 569.025, 1684.208 577 C 1696.935 603.391, 1700.653 617.846, 1699.640 637 C 1698.966 649.759, 1697.450 656.657, 1692.935 667.500 C 1686.184 683.719, 1675.201 698.673, 1662.894 708.405 C 1648.057 720.137, 1635.329 726.116, 1616.682 730.114 C 1608.473 731.874, 1604.538 732.143, 1592.682 731.758 C 1576.627 731.236, 1564.834 728.839, 1554.796 724.058 C 1551.373 722.428, 1548.332 721.335, 1548.037 721.629 C 1547.743 721.924, 1550.876 725.310, 1555.001 729.153 C 1563.105 736.705, 1574.533 743.515, 1585 747.029 C 1593.019 749.722, 1606.511 751.992, 1614.500 751.993 C 1632.412 751.995, 1656.931 743.833, 1671.500 733.018 C 1673.700 731.385, 1677.075 728.973, 1679 727.658 C 1684.647 723.801, 1698.584 708.670, 1703.378 701.190 C 1710.089 690.721, 1715.681 678.452, 1718.050 669 C 1721.085 656.890, 1721.778 636.330, 1719.591 623.251 C 1718.678 617.790, 1717.006 610.888, 1715.875 607.911 C 1713.663 602.086, 1706.824 587.723, 1704.762 584.571 C 1704.068 583.510, 1700.464 578.013, 1696.752 572.356 C 1693.041 566.698, 1689.177 560.591, 1688.166 558.785 C 1677.129 539.073, 1674.254 530.999, 1673.104 516.500 L 1672.470 508.500 1670.628 515.097 M 1668.079 513.583 C 1668.127 514.748, 1668.364 514.985, 1668.683 514.188 C 1668.972 513.466, 1668.936 512.603, 1668.604 512.271 C 1668.272 511.939, 1668.036 512.529, 1668.079 513.583 M 1342.073 516.635 C 1339.476 519.936, 1339.307 526.063, 1341.752 528.275 C 1342.715 529.147, 1344.708 530.319, 1346.181 530.879 C 1348.374 531.713, 1349.458 531.493, 1352.179 529.665 C 1355.024 527.754, 1355.543 526.773, 1355.800 522.829 C 1356.060 518.839, 1355.742 517.942, 1353.415 516.112 C 1351.918 514.934, 1349.274 514, 1347.438 514 C 1345.072 514, 1343.562 514.742, 1342.073 516.635 M 1462.455 516.455 C 1460.707 518.202, 1460.002 520.002, 1460.007 522.705 C 1460.013 525.912, 1460.551 526.866, 1463.487 528.865 C 1466.220 530.726, 1467.709 531.090, 1470.477 530.570 C 1473.045 530.089, 1474.425 529.079, 1475.586 526.834 C 1477.597 522.946, 1476.726 517.622, 1473.738 515.529 C 1470.385 513.180, 1465.313 513.596, 1462.455 516.455 M 1300.338 580.999 C 1299.149 581.478, 1297.879 582.807, 1297.516 583.951 C 1296.595 586.853, 1299.915 607.594, 1302.132 612.789 C 1304.261 617.778, 1308.158 621.688, 1316.422 627.125 C 1322.203 630.929, 1335.871 636, 1340.343 636 C 1342.556 636, 1342.573 635.892, 1341.789 626.962 C 1341.295 621.328, 1340.349 616.903, 1339.277 615.212 C 1335.174 608.743, 1305.476 579.841, 1303.160 580.063 C 1302.797 580.098, 1301.527 580.519, 1300.338 580.999 M 1494.650 597.003 C 1484.463 607.034, 1477.976 614.217, 1477.263 616.253 C 1475.928 620.066, 1474 630.364, 1474 633.684 C 1474 635.363, 1474.572 636, 1476.080 636 C 1479.629 636, 1495.059 630.109, 1501.061 626.463 C 1506.611 623.091, 1512.746 617.211, 1514.887 613.210 C 1515.466 612.129, 1516.829 605.529, 1517.916 598.545 C 1520.288 583.304, 1519.836 581, 1514.475 581 C 1511.201 581, 1509.532 582.347, 1494.650 597.003 M 1000.537 636.381 L 997.573 638.752 1000.174 642.126 C 1001.604 643.982, 1006.468 649.775, 1010.982 655 C 1024.466 670.605, 1033.389 681.021, 1035.299 683.384 C 1036.757 685.186, 1036.899 686.135, 1036.049 688.370 C 1034.519 692.396, 1034.756 695.601, 1036.894 699.790 C 1039.580 705.054, 1042.240 707.116, 1047.642 708.125 C 1051.541 708.854, 1053.078 708.656, 1056.535 706.983 C 1061.754 704.456, 1064.396 699.222, 1064.137 691.919 C 1063.813 682.757, 1059.304 679, 1048.634 679 C 1042.226 679, 1042.138 678.962, 1038.834 674.776 C 1037 672.452, 1030.410 664.915, 1024.190 658.026 C 1017.969 651.137, 1010.994 642.926, 1008.690 639.779 C 1006.385 636.633, 1004.275 634.047, 1004 634.034 C 1003.725 634.021, 1002.167 635.077, 1000.537 636.381 M 1803.319 645.180 C 1797.919 651.305, 1789.528 660.858, 1784.673 666.409 C 1779.819 671.959, 1775.182 677.018, 1774.369 677.650 C 1773.556 678.282, 1770.236 678.800, 1766.990 678.800 C 1759.867 678.800, 1756.205 681.002, 1753.555 686.877 C 1751.077 692.372, 1752.099 698.905, 1756.160 703.530 C 1764.151 712.631, 1777.750 709.069, 1780.993 697.025 C 1781.802 694.021, 1781.702 692.164, 1780.550 688.821 L 1779.062 684.500 1783.877 679.500 C 1786.526 676.750, 1793.126 669.325, 1798.545 663 C 1803.963 656.675, 1810.358 649.286, 1812.755 646.579 C 1819.202 639.299, 1819.399 638.671, 1816.022 636.175 L 1813.139 634.043 1803.319 645.180 M 1403.528 775.816 C 1400.898 782.792, 1398.466 788.725, 1398.123 789 C 1397.780 789.275, 1395.879 792.658, 1393.897 796.517 C 1389.349 805.375, 1382.208 815.714, 1374.507 824.592 C 1368.147 831.922, 1352.170 847.999, 1337.419 861.912 C 1317.530 880.670, 1314.472 883.824, 1308.760 891.467 C 1301.706 900.906, 1297.050 909.825, 1293.842 920.043 C 1291.781 926.606, 1291.501 929.478, 1291.505 944 C 1291.510 958.848, 1291.748 961.151, 1293.878 967 C 1296.923 975.361, 1300.623 983.303, 1304.178 989.111 C 1305.730 991.646, 1307 993.997, 1307 994.335 C 1307 994.672, 1305.673 995.635, 1304.052 996.473 C 1299.447 998.854, 1296.011 1004.111, 1295.337 1009.806 C 1294.861 1013.823, 1295.198 1015.777, 1297.015 1019.530 C 1300.125 1025.955, 1306.492 1030.006, 1313.446 1029.984 C 1323.253 1029.952, 1330.083 1023.394, 1331.337 1012.805 C 1331.800 1008.892, 1331.483 1006.907, 1329.899 1003.802 C 1327.942 999.966, 1327.934 999.767, 1329.683 998.456 C 1330.682 997.707, 1335.775 994.742, 1341 991.866 C 1346.225 988.991, 1355.450 983.858, 1361.500 980.459 C 1367.550 977.060, 1376.983 971.935, 1382.462 969.069 C 1391.842 964.164, 1392.500 963.966, 1393.731 965.680 C 1397.062 970.319, 1400.245 972.809, 1404.294 973.942 C 1411.549 975.974, 1418.495 973.047, 1423.149 965.998 C 1424.778 963.531, 1424.834 963.522, 1427.649 965.281 C 1429.217 966.260, 1434.775 969.300, 1440 972.036 C 1445.225 974.773, 1450.850 977.808, 1452.500 978.782 C 1454.150 979.755, 1460.371 983.240, 1466.323 986.526 C 1472.276 989.812, 1478.367 993.175, 1479.859 994 C 1481.351 994.825, 1483.951 996.548, 1485.638 997.829 L 1488.704 1000.157 1486.787 1003.829 C 1485.368 1006.545, 1484.966 1008.971, 1485.242 1013.157 C 1485.925 1023.528, 1493.227 1030.306, 1503.617 1030.213 C 1512.396 1030.134, 1518.747 1024.861, 1521.043 1015.745 C 1522.955 1008.151, 1520.339 1002.051, 1512.787 996.496 L 1510.073 994.500 1515.969 982.500 C 1519.212 975.900, 1522.845 966.711, 1524.043 962.080 C 1525.916 954.842, 1526.153 951.824, 1525.730 940.580 C 1525.342 930.243, 1524.716 925.927, 1522.745 920 C 1519.179 909.276, 1515.434 901.827, 1508 890.674 C 1506.625 888.611, 1496.758 878.503, 1486.073 868.212 C 1447.167 830.738, 1433.662 816.295, 1427.899 806 C 1427.130 804.625, 1426.194 803.268, 1425.821 802.985 C 1424.743 802.167, 1415.067 782.871, 1414.057 779.527 C 1413.555 777.862, 1412.056 773.492, 1410.727 769.816 L 1408.310 763.132 1403.528 775.816 M 1194.154 881.750 C 1192.440 883.263, 1190.424 886.300, 1189.675 888.500 C 1188.877 890.843, 1187.315 892.996, 1185.906 893.697 C 1184.583 894.356, 1178.775 896.093, 1173 897.557 C 1167.225 899.021, 1161.150 900.609, 1159.500 901.086 C 1155.104 902.355, 1137.817 906.634, 1119.043 911.099 C 1109.992 913.252, 1102.252 915.348, 1101.844 915.757 C 1101.435 916.165, 1101.815 917.973, 1102.687 919.774 C 1103.968 922.418, 1104.680 922.918, 1106.387 922.374 C 1107.549 922.004, 1118.850 919.113, 1131.500 915.951 C 1144.150 912.789, 1161.559 908.357, 1170.187 906.101 C 1178.815 903.845, 1187.002 902, 1188.381 902 C 1189.759 902, 1191.475 902.823, 1192.193 903.829 C 1193.792 906.066, 1199.126 908, 1203.699 908 C 1205.569 908, 1208.414 907.320, 1210.021 906.489 C 1213.919 904.473, 1218 898.285, 1218 894.390 C 1218 889.408, 1215.320 884.290, 1211.270 881.538 C 1208.471 879.636, 1206.250 879, 1202.403 879 C 1198.227 879, 1196.691 879.512, 1194.154 881.750 M 1606.739 880.578 C 1605.220 881.402, 1602.807 883.930, 1601.376 886.196 C 1599.287 889.505, 1598.872 891.169, 1599.264 894.652 C 1599.549 897.180, 1600.842 900.415, 1602.365 902.412 C 1607.400 909.013, 1618.059 909.857, 1624.162 904.137 C 1625.998 902.417, 1627.812 901.007, 1628.192 901.005 C 1628.573 901.002, 1636.898 903.194, 1646.692 905.875 C 1664.324 910.701, 1678.172 914.227, 1706.500 921.103 C 1708.700 921.637, 1711.287 922.313, 1712.250 922.605 C 1713.402 922.954, 1714 922.595, 1714 921.554 C 1714 920.684, 1714.545 919.099, 1715.212 918.032 C 1715.879 916.964, 1716.216 915.917, 1715.962 915.704 C 1715.514 915.328, 1642.836 896.735, 1634.197 894.786 C 1630.271 893.900, 1629.689 893.355, 1627.572 888.567 C 1624.714 882.104, 1620.227 878.982, 1613.882 879.040 C 1611.472 879.062, 1608.257 879.754, 1606.739 880.578 M 1344.500 896.898 C 1339.738 899.679, 1337 904.540, 1337 910.215 C 1337 914.001, 1337.613 915.937, 1339.664 918.626 C 1341.129 920.546, 1343.581 922.766, 1345.114 923.559 C 1348.543 925.332, 1354.342 925.425, 1357.044 923.750 C 1358.364 922.932, 1359.310 922.847, 1359.781 923.506 C 1360.176 924.059, 1362.975 926.355, 1366 928.608 C 1369.025 930.861, 1375.952 936.560, 1381.394 941.273 C 1386.835 945.986, 1392.123 950.060, 1393.144 950.327 C 1394.480 950.677, 1395 950.270, 1395 948.875 C 1395 947.809, 1395.675 946.678, 1396.500 946.362 C 1397.325 946.045, 1397.974 945.272, 1397.942 944.643 C 1397.911 944.014, 1394.924 941.250, 1391.305 938.500 C 1381.584 931.112, 1364 915.963, 1364 914.976 C 1364 914.504, 1364.450 913.840, 1365 913.500 C 1366.694 912.453, 1366.109 906.967, 1363.882 903.004 C 1361.363 898.522, 1355.535 894.972, 1350.864 895.073 C 1349.014 895.113, 1346.150 895.934, 1344.500 896.898 M 1459.223 897.119 C 1456.375 898.528, 1454.085 900.705, 1452.369 903.634 C 1449.913 907.824, 1449.770 909.632, 1451.531 914.221 C 1452.159 915.856, 1448.344 920.086, 1441.262 925.607 C 1429.044 935.132, 1419.128 943.581, 1419.088 944.500 C 1419.064 945.050, 1419.887 946.596, 1420.916 947.935 C 1422.776 950.355, 1422.804 950.358, 1425.644 948.513 C 1427.215 947.492, 1429.625 945.638, 1431 944.394 C 1434.023 941.657, 1446.179 931.825, 1452.507 927 C 1455.032 925.075, 1457.863 923.614, 1458.799 923.754 C 1468.717 925.236, 1469.501 925.185, 1472.898 922.843 C 1474.768 921.554, 1477.159 918.925, 1478.213 917 C 1479.644 914.387, 1479.998 912.288, 1479.608 908.715 C 1479.321 906.083, 1478.175 902.651, 1477.063 901.088 C 1474.806 897.918, 1469.429 895, 1465.849 895.001 C 1464.557 895.001, 1461.575 895.954, 1459.223 897.119" fill="url(#g)" fill-rule="evenodd" stroke="none"/>
</svg>